<?xml version="1.0" standalone="no"?>
<!DOCTYPE svg PUBLIC "-//W3C//DTD SVG 20010904//EN"
 "http://www.w3.org/TR/2001/REC-SVG-20010904/DTD/svg10.dtd">
<svg version="1.0" xmlns="http://www.w3.org/2000/svg"
 width="590.000000pt" height="108.000000pt" viewBox="0 0 590.000000 108.000000"
 preserveAspectRatio="xMidYMid meet">

<g transform="translate(0.000000,108.000000) scale(0.100000,-0.100000)"
fill="#8d2562" stroke="none">
<path d="M2236 1054 c-13 -13 -16 -45 -16 -199 0 -163 -2 -185 -18 -206 -12
-14 -25 -20 -35 -16 -14 5 -17 21 -17 85 l0 78 -66 2 c-57 1 -68 -2 -89 -22
-28 -28 -47 -90 -38 -125 13 -57 68 -90 119 -71 18 7 30 7 39 0 18 -15 58 2
84 36 l21 27 11 -32 c9 -25 17 -31 39 -31 16 0 42 11 59 26 22 18 31 21 31 11
0 -7 9 -22 19 -31 20 -19 44 -13 82 20 14 12 17 11 27 -11 23 -50 47 -26 55
53 7 70 21 102 42 102 9 0 15 -20 20 -67 3 -38 7 -77 8 -87 3 -26 21 -31 41
-11 10 11 16 34 16 65 0 59 14 100 35 100 11 0 15 -12 15 -47 0 -27 5 -65 11
-85 9 -33 14 -38 40 -38 19 0 39 10 56 26 l25 25 30 -28 c36 -35 90 -37 134
-6 l31 22 11 -24 c23 -50 47 -26 55 53 8 70 21 102 42 102 12 0 15 -14 15 -59
0 -83 12 -111 48 -111 18 0 39 10 55 26 l26 26 12 -26 c17 -36 57 -35 94 4
l29 30 26 -32 c21 -25 34 -31 61 -30 55 2 83 2 103 2 25 -1 68 41 84 82 l12
33 -26 -33 c-43 -54 -54 -44 -54 52 l0 83 -67 1 c-51 1 -72 -3 -86 -16 -24
-22 -47 -65 -47 -90 0 -11 -11 -31 -25 -46 -40 -44 -55 -22 -55 79 l0 83 35 6
c47 9 54 26 11 26 l-36 0 0 105 c0 97 -1 105 -19 105 -40 0 -51 -26 -51 -117
0 -76 -2 -85 -20 -90 -11 -3 -20 -9 -20 -13 0 -5 9 -12 20 -15 18 -6 20 -15
20 -79 0 -58 -4 -76 -18 -89 -34 -31 -42 -21 -42 53 0 57 -4 74 -20 90 -25 25
-41 25 -74 -1 l-26 -20 0 25 c0 21 -5 26 -25 26 -33 0 -45 -26 -45 -100 0 -51
-4 -65 -25 -85 -59 -60 -128 -4 -111 90 13 66 59 82 71 24 9 -38 0 -49 -38
-50 l-32 -1 33 -14 c61 -26 105 10 82 67 -16 38 -32 50 -70 51 -59 2 -110 -48
-110 -107 0 -37 -17 -65 -40 -65 -18 0 -20 7 -20 68 0 104 -39 142 -90 87 -27
-29 -40 -32 -40 -10 0 9 -11 21 -25 27 -22 10 -30 8 -55 -10 l-29 -22 -3 23
c-4 27 -30 33 -52 12 -11 -12 -16 -34 -16 -76 0 -69 -12 -99 -40 -99 -18 0
-20 7 -20 91 l0 91 -27 -7 c-16 -4 -30 -8 -31 -10 -2 -2 -7 -36 -10 -76 -7
-76 -22 -99 -57 -85 -16 6 -17 22 -10 221 7 212 7 215 -13 215 -11 0 -28 -7
-36 -16z m-152 -290 c3 -9 6 -45 6 -80 0 -51 -4 -66 -17 -71 -40 -16 -66 67
-42 136 12 33 42 43 53 15z m1484 -72 c3 -77 2 -82 -18 -82 -28 0 -54 60 -44
104 10 47 23 68 42 64 14 -3 18 -18 20 -86z"/>
<path d="M2382 928 c-17 -17 -15 -65 3 -72 21 -8 45 21 45 55 0 31 -25 40 -48
17z"/>
<path d="M3981 929 c-49 -10 -77 -28 -90 -56 -22 -48 -4 -691 21 -720 14 -17
50 -16 95 2 33 14 40 14 71 -1 113 -53 287 82 308 240 4 29 12 46 23 49 9 3
24 8 34 12 15 6 17 0 17 -56 1 -146 109 -253 255 -254 70 0 114 19 179 76 47
42 56 46 56 27 0 -35 23 -89 42 -99 31 -17 96 5 103 34 3 12 9 76 15 142 11
136 21 181 51 219 27 34 57 34 70 -1 6 -15 13 -106 16 -201 7 -200 10 -208 77
-198 62 10 76 29 76 100 0 85 18 230 32 263 18 42 39 63 63 63 30 0 35 -21 35
-157 0 -138 13 -203 47 -237 30 -30 83 -35 136 -12 64 27 150 145 172 239 10
39 -9 34 -36 -10 -53 -90 -127 -140 -143 -97 -3 9 -6 75 -6 147 -1 98 -5 145
-18 181 -43 123 -166 120 -249 -6 l-27 -40 -12 42 c-16 53 -38 77 -83 91 -49
14 -95 -6 -149 -65 l-42 -46 0 59 c0 46 -4 62 -21 76 -18 18 -23 18 -62 5 -68
-24 -87 -63 -88 -184 -1 -161 -10 -211 -45 -247 -91 -96 -205 -89 -262 16 -21
40 -20 173 2 235 46 124 134 117 150 -13 10 -81 6 -87 -75 -87 -61 0 -69 -2
-69 -19 0 -24 64 -51 135 -58 94 -8 147 57 129 161 -18 110 -77 160 -189 161
-84 0 -138 -27 -198 -99 -37 -44 -67 -66 -114 -80 -19 -6 -25 -2 -36 26 -20
46 -90 123 -127 138 -56 23 -115 -20 -138 -102 -12 -43 3 -73 61 -125 32 -29
35 -35 30 -75 -16 -136 -75 -207 -129 -153 -22 22 -24 32 -24 122 0 54 5 194
10 311 11 220 8 242 -28 260 -9 5 -32 5 -51 1z"/>
<path d="M736 794 c-21 -21 -20 -67 2 -87 10 -10 32 -16 50 -14 28 2 32 6 32
30 0 19 -5 27 -17 26 -11 0 -13 -3 -5 -6 17 -7 15 -30 -4 -37 -23 -9 -64 20
-64 44 0 27 29 52 56 47 13 -2 21 0 18 4 -9 15 -51 10 -68 -7z"/>
<path d="M861 748 c1 -35 4 -51 6 -35 5 34 27 35 49 2 9 -14 19 -23 22 -21 3
3 -1 13 -8 21 -10 12 -10 21 -1 41 15 34 0 54 -40 54 l-29 0 1 -62z m54 27 c0
-13 -8 -21 -22 -23 -19 -3 -23 1 -23 23 0 22 4 26 23 23 14 -2 22 -10 22 -23z"/>
<path d="M971 762 c-1 -47 2 -54 25 -64 41 -19 59 -1 60 63 1 52 1 52 -3 7 -3
-32 -10 -51 -22 -57 -27 -15 -44 3 -52 56 l-6 48 -2 -53z"/>
<path d="M1101 748 c1 -45 3 -56 8 -38 5 14 6 40 3 58 -5 32 -4 33 24 30 21
-2 29 -8 29 -23 1 -11 -4 -24 -10 -28 -6 -5 -4 -7 5 -4 20 5 25 34 10 52 -7 8
-25 15 -41 15 -29 0 -29 0 -28 -62z"/>
<path d="M1217 792 c-21 -23 -22 -52 -2 -78 13 -17 13 -16 2 14 -16 44 -1 67
43 67 63 0 69 -76 7 -94 -25 -7 -27 -9 -9 -10 28 -1 62 32 62 62 0 50 -70 76
-103 39z"/>
<path d="M240 678 c-26 -43 -35 -130 -22 -206 12 -75 33 -102 77 -102 43 0 60
20 40 46 -31 41 -12 84 37 84 37 0 55 -40 39 -85 -9 -24 3 -16 66 48 l78 77
-74 72 c-64 64 -72 69 -67 45 14 -61 -25 -102 -70 -72 -25 16 -33 58 -14 70
16 10 12 42 -6 49 -37 14 -64 6 -84 -26z"/>
<path d="M87 612 c-37 -37 -67 -72 -67 -78 0 -6 12 -21 28 -34 15 -12 44 -39
65 -59 l38 -36 -15 37 c-22 53 -21 155 3 201 10 20 18 37 17 37 -1 0 -32 -30
-69 -68z"/>
<path d="M742 584 c-26 -18 -30 -65 -6 -88 18 -18 70 -21 80 -5 4 8 -3 9 -24
5 -21 -5 -34 -2 -46 9 -36 36 -8 81 47 77 24 -2 28 0 17 8 -21 14 -42 12 -68
-6z"/>
<path d="M861 545 c-24 -64 -24 -65 -11 -65 6 0 10 7 10 15 0 9 9 15 25 15 14
0 28 -7 31 -15 4 -8 10 -15 15 -15 4 0 -2 27 -13 60 -12 33 -25 60 -29 60 -4
0 -17 -25 -28 -55z m39 16 c0 -5 3 -16 6 -25 4 -12 0 -16 -15 -16 -22 0 -25 8
-15 34 7 17 24 22 24 7z"/>
<path d="M960 541 c0 -34 4 -61 10 -61 6 0 10 11 10 25 0 33 24 32 39 -1 6
-15 14 -24 17 -21 3 3 1 13 -4 23 -7 12 -6 24 1 36 17 26 -3 52 -42 56 l-31 3
0 -60z m63 33 c11 -11 -5 -34 -24 -34 -12 0 -19 7 -19 20 0 19 28 28 43 14z"/>
<path d="M1081 538 c1 -41 3 -54 8 -39 9 34 29 37 42 7 7 -14 16 -26 21 -26 5
0 4 9 -2 19 -5 11 -7 34 -3 51 7 35 -6 50 -44 50 -22 0 -23 -4 -22 -62z m57
25 c-2 -10 -13 -19 -26 -21 -17 -3 -22 2 -22 17 0 16 6 21 26 21 19 0 25 -5
22 -17z"/>
<path d="M1190 540 l0 -60 38 1 c30 2 32 3 10 6 -35 5 -39 40 -5 46 l22 4 -22
2 c-34 2 -32 41 2 41 14 0 25 5 25 10 0 6 -16 10 -35 10 l-35 0 0 -60z"/>
<path d="M1290 540 c0 -33 4 -60 10 -60 6 0 10 11 10 24 0 18 7 26 23 29 l22
4 -22 2 c-26 1 -34 41 -9 41 8 0 18 5 21 10 4 6 -7 10 -24 10 l-31 0 0 -60z"/>
<path d="M1396 585 c-42 -32 -15 -105 39 -105 51 0 74 75 33 104 -28 20 -47
20 -72 1z m69 -15 c38 -42 -18 -105 -61 -70 -20 17 -18 67 4 79 25 15 37 13
57 -9z"/>
<path d="M1520 559 c0 -68 24 -92 74 -73 12 5 16 19 14 63 l-2 56 -3 -52 c-3
-41 -8 -53 -23 -58 -31 -10 -40 3 -40 56 0 27 -4 49 -10 49 -5 0 -10 -18 -10
-41z"/>
<path d="M1650 540 c0 -33 4 -60 10 -60 6 0 10 11 10 25 0 33 13 32 39 -2 20
-27 30 -22 12 6 -6 9 -5 24 2 38 7 16 7 27 0 34 -6 6 -9 2 -9 -13 1 -18 -5
-24 -26 -26 -24 -3 -28 0 -28 22 0 18 6 26 23 29 19 4 18 4 -5 6 -28 1 -28 0
-28 -59z"/>
<path d="M3141 514 c-29 -21 -60 -89 -61 -131 0 -23 -5 -33 -15 -33 -8 0 -15
-9 -15 -20 0 -11 7 -20 15 -20 12 0 15 -15 15 -74 0 -78 12 -101 47 -94 16 3
18 14 17 85 -1 71 1 82 17 86 11 3 19 14 19 26 0 13 -5 19 -14 15 -22 -8 -28
13 -21 67 8 56 27 82 59 77 16 -2 22 -11 24 -36 3 -25 8 -32 20 -30 21 4 27
47 10 71 -19 26 -87 33 -117 11z"/>
<path d="M730 325 l0 -56 33 3 c31 3 32 4 32 53 0 49 -1 50 -32 53 l-33 3 0
-56z m53 38 c9 -9 -12 -33 -29 -33 -8 0 -14 9 -14 20 0 19 28 28 43 13z m2
-63 c0 -8 -10 -16 -22 -18 -18 -3 -23 2 -23 18 0 16 5 21 23 18 12 -2 22 -10
22 -18z"/>
<path d="M841 323 c1 -32 4 -48 6 -35 5 27 29 29 45 2 7 -11 16 -20 21 -20 4
0 5 6 1 12 -5 7 -8 31 -9 53 0 38 -2 40 -32 43 l-33 3 1 -58z m56 31 c7 -18
-14 -35 -34 -27 -7 3 -13 14 -13 24 0 24 38 26 47 3z"/>
<path d="M966 330 c-10 -28 -16 -54 -12 -57 3 -3 8 2 12 11 8 21 43 21 61 -1
13 -16 14 -16 10 -2 -3 10 -11 35 -18 58 -7 23 -17 41 -24 41 -6 0 -19 -23
-29 -50z m44 -7 c0 -7 -7 -13 -15 -13 -15 0 -21 31 -8 43 8 8 23 -12 23 -30z"/>
<path d="M1070 357 c0 -16 9 -28 25 -35 34 -16 34 -46 0 -40 -14 3 -25 1 -25
-4 0 -5 15 -8 32 -6 45 4 49 33 9 56 -35 19 -35 33 0 43 21 6 21 7 -8 8 -28 1
-33 -2 -33 -22z"/>
<path d="M1173 325 c0 -33 2 -45 4 -27 2 18 2 45 0 60 -2 15 -4 0 -4 -33z"/>
<path d="M1220 325 l0 -55 38 1 c30 2 32 3 10 6 -26 4 -28 8 -28 54 0 27 -4
49 -10 49 -5 0 -10 -25 -10 -55z"/>
<path d="M3477 363 c-4 -3 -7 -24 -7 -45 0 -64 -53 -148 -78 -123 -4 4 -7 39
-7 78 l0 72 -49 8 c-81 13 -120 -14 -140 -95 -8 -34 15 -92 41 -107 11 -5 52
-9 93 -7 77 2 70 -2 125 71 9 11 21 38 27 60 15 51 21 58 47 50 25 -8 28 -43
6 -86 -15 -29 -15 -31 10 -60 59 -71 4 -206 -59 -143 -20 19 -21 64 -1 90 18
24 19 34 0 34 -19 0 -37 -35 -38 -76 -2 -64 57 -93 122 -59 33 17 61 70 61
115 0 17 9 43 20 57 11 14 20 30 20 36 0 5 -10 -3 -22 -18 l-22 -28 -18 23
c-17 21 -17 25 -3 46 39 60 4 114 -73 114 -27 0 -52 -3 -55 -7z m-149 -110 l3
-83 -29 0 c-37 0 -57 41 -49 101 6 49 23 71 51 67 19 -3 21 -11 24 -85z"/>
<path d="M2024 335 c-55 -28 -82 -112 -54 -166 13 -23 61 -49 91 -49 25 0 89
61 89 86 0 9 18 33 40 52 47 39 47 51 2 25 -31 -17 -32 -17 -46 2 -33 46 -42
54 -66 59 -14 4 -39 -1 -56 -9z m45 -43 c-11 -18 -10 -24 4 -40 29 -32 19 -92
-14 -92 -48 0 -52 132 -5 162 18 12 28 -8 15 -30z"/>
<path d="M2386 335 c-33 -17 -66 -74 -66 -116 0 -56 36 -94 89 -94 l41 0 0
-40 c0 -46 14 -65 47 -65 l23 0 0 164 0 165 -57 -2 c-31 -1 -66 -7 -77 -12z
m64 -102 c0 -71 -1 -74 -22 -71 -47 7 -61 106 -21 150 28 32 43 5 43 -79z"/>
<path d="M2562 333 c-4 -10 -7 -47 -7 -83 0 -119 21 -146 83 -110 l35 21 19
-21 c24 -26 30 -25 66 5 36 31 40 31 69 3 17 -16 37 -23 65 -23 35 0 45 6 74
39 19 22 34 46 34 55 0 10 -5 7 -16 -9 -37 -55 -90 -68 -118 -28 -25 36 -15
120 17 140 18 11 37 -11 37 -43 0 -26 -3 -29 -32 -29 -32 -1 -32 -1 -13 -16
54 -40 114 10 84 71 -40 83 -169 23 -169 -78 0 -28 -26 -61 -41 -52 -5 4 -9
44 -9 91 0 73 -2 84 -17 84 -36 0 -46 -17 -52 -90 -7 -67 -22 -97 -43 -84 -4
3 -8 43 -8 90 0 83 0 84 -25 84 -15 0 -29 -7 -33 -17z"/>
</g>
</svg>
